<svg version="1.1" id="Vrstva_1" xmlns="http://www.w3.org/2000/svg" xmlns:xlink="http://www.w3.org/1999/xlink" x="0px" y="0px"
	 viewBox="0 0 32.7 32.7" enable-background="new 0 0 32.7 32.7" xml:space="preserve">
<path fill="#231F20" d="M24.4,12c1.5-2,3.3-3.8,5.2-5.2c-2.9-4-7.5-6.7-12.8-6.8c0,0.1,0,0.2,0,0.3c-1.6,11-1.6,21.9-0.1,32.4
	c0.8,0,1.5-0.1,2.2-0.2C18,25.5,19.8,18.1,24.4,12z M32.5,13.9c-0.7,0.9-1.5,1.8-2.2,2.7c-3.7,4.8-6.6,10-8.9,15.3
	c6.5-2.1,11.2-8.3,11.2-15.5C32.7,15.5,32.7,14.7,32.5,13.9z M0,16.4c0,8.2,6,15,13.9,16.2c-6-7.6-9.5-17.2-9.5-27.3
	C1.7,8.2,0,12.1,0,16.4z"/>
<script  type="text/javascript">
    <![CDATA[
         var c=window.location.search.split('color=')[1]; c=parseInt(c,16); if(!isNaN(c)){c=c.toString(16);var p=document.getElementsByTagName('path');for(var i=0,l=p.length;i<l;i++){var s=p[i].style;s.fill='#'+c;} var p2=document.getElementsByTagName('polygon');for(var i=0,l=p2.length;i<l;i++){var s=p2[i].style;s.fill='#'+c;} var p3=document.getElementsByTagName('circle');for(var i=0,l=p3.length;i<l;i++){var s=p3[i].style;s.fill='#'+c;} }
        ]]>
</script>
</svg>
